<?xml version="1.0" standalone="yes"?>
<svg xmlns="http://www.w3.org/2000/svg" width="71" height="71">
<path style="fill:#000000; stroke:none;" d="M0 0L0 71L71 71L71 0L0 0z"/>
<path style="fill:#d95f27; stroke:none;" d="M42 5.47222L41 5.86111L40.0278 6.27778L38.25 7.47222L37.4722 8.25L36.8611 9.08333L36.2778 10.0278L35.4722 12L35.0833 14L35.0278 16L35.25 18L35.5 19L36.5 20.9722L38.0833 22.75L39.0278 23.5L41 24.5833L43 25.3056L44 25.5556L45 25.6944L46 25.6944L48 25.3056L50 24.5833L50.9722 24.0833L51.9167 23.5L53.5278 21.9167L54.7222 20L55.1389 19L55.5278 18L55.8889 16L55.8889 15L55.5833 13L54.8889 11L54.3611 10L52.8889 8.08334L51.9722 7.25L50 5.94444L49 5.5L48 5.25L46 5.02778L44 5.08334L43 5.25L42 5.47222z"/>
<path style="fill:#faa722; stroke:none;" d="M39 47L38.2222 46.25L37.6944 46.1667L35.9722 45.5556L34 44.7222L32.0278 43.5278L30.3056 41.9167L29.1111 40L28.75 39L28.5 38L28.4444 37L28.4722 36L28.8056 34L29 33L29.4167 31L30 29L30.3333 28L31 26L31.3056 25L31.5833 24L31.9167 22L32 20L32 19L32 17.0556L32 14L30.5 13.1944L29.9444 13.0278L28.9444 12.6667L27 12.3056L25 12.5L23 13.2778L22 13.8611L21 14.4722L19.0833 16.0833L17.4722 18L16.8611 19L15.7778 21L15.25 22L14.4722 24L14.2222 25L13.8056 27L13.3889 29L13.2222 30L13.0833 31L13.0833 33L13.3889 35L13.6389 36L13.8889 37L14.6111 39L15.7222 41L16.4167 42L18.0833 43.8889L19.0278 44.6944L20 45.3611L21 45.8889L23 46.5833L25 46.9167L27 47L28 47L30 47L39 47z"/>
<path style="fill:#e38b25; stroke:none;" d="M11 25L10.5556 26.5L10.3333 27.0556L9.69444 29L9.41667 30L9 32L8.61111 34L8.38889 35L8.08333 37L8.02778 38L8 40L8.02778 42L8.08333 43L8.38889 45L8.86111 47L9.16667 48L9.44444 49L10.25 51L10.7778 52L11.25 53L12.4722 55L14.0833 56.9722L15.0278 57.9167L17 59.5278L19 60.75L20 61.2222L22 62.2222L23 62.75L25 63.5556L26 63.8333L27 64.1389L29 64.6111L31 64.9167L32 64.9722L33 65L35 65L37 65L38 64.9722L39 64.9167L41 64.6111L43 64.1389L44 63.8611L45 63.6111L47 62.9722L48 62.5833L50 61.5833L52 60.3333L53 59.6667L54 59L56 57.5833L56.9722 56.7778L57.9167 55.9167L58.7778 54.9722L59.5833 54L60.9722 52L62.1667 50L62.7222 49L63.5556 47L63.8333 46L64.3611 44L64.6111 43L64.9167 41L65 39L64.9167 37L64.5278 35L64.1389 34L63.1389 32.0278L62.5278 31.0833L60.9167 29.5L59.9722 28.9167L58 28.0278L56 27.4167L54 27.0833L52 27L50 27.0833L48 27.4167L47 27.6944L45.0556 28.3333L44.5 28.5556L43 29L43.7778 29.7222L44.3056 29.75L46.0278 30.0556L47.9444 30.3889L49.5 30.75L51 31L49.5 31.4722L48.9444 31.3611L47 31.2778L45 31.4167L44 31.6111L43 31.8056L41 32.1944L40 32.4167L39 32.6944L38 33L36 33.5833L34 33.8889L32.0556 33.7778L31.0556 33.5833L29 33L29.25 34.5L29.6389 36.0556L30.1667 38L30.4722 39L31.5 40.8889L33.0833 42.3611L34.0278 42.8889L36 43.5833L37 43.7778L38 43.9167L40 43.9167L42 43.6111L43 43.3611L45 42.8333L46 42.5556L47.9444 41.7778L48.9444 41.2222L51 40L50.25 41.5L49.7778 42.0556L49.1111 43.0278L47.6111 44.7778L46.7778 45.6111L44.9722 47.1389L44 47.8333L43 48.5556L41 49.7222L40 50.1667L39 50.6111L37 51.3056L36 51.6111L35 51.8611L33 52.3611L32 52.6111L30 52.8889L29 52.8889L27 52.5833L26 52.3056L25 51.9722L23 51.1667L22 50.7222L20 49.5278L19.0278 48.75L18.0833 47.9167L16.4167 46L15.0833 44L14.0833 42L13.3889 40L13.1389 39L12.6389 37L12.3889 36L12.0833 34L12.0278 33L12 31L12 29L11.9722 28.0278L11.9444 27.1111L11.75 26.3056L11.7222 25.7778L11 25z"/>
<path style="fill:#000000; stroke:none;" d="M51 32L51.25 33.5L51.5278 35.0556L51.5556 36L51.5278 36.9444L51.25 38.5L51 40L51.9722 39.2222L52.1389 38.6944L52.5556 37.8889L52.8889 36L52.7222 34.1111L52.3333 33.3056L52.1389 32.7778L51 32z"/>
</svg>
